<svg width="99" height="99" viewBox="0 0 99 99" fill="none" xmlns="http://www.w3.org/2000/svg">
<path d="M49.6934 0C22.4881 0 0 22.101 0 49.3066C0 76.5123 22.4881 99 49.6934 99C76.8986 99 99 76.5123 99 49.3066C99 22.101 76.8986 0 49.6934 0Z" fill="#FEDB41"/>
<path d="M99 49.3066C99 76.5123 76.8986 99 49.6934 99V0C76.8986 0 99 22.101 99 49.3066Z" fill="#FFCC33"/>
<path d="M49.6934 11.6016C28.9262 11.6016 11.6016 28.5396 11.6016 49.3066C11.6016 70.0736 28.9262 87.3984 49.6934 87.3984C70.4605 87.3984 87.3984 70.0736 87.3984 49.3066C87.3984 28.5396 70.4605 11.6016 49.6934 11.6016Z" fill="#FFC554"/>
<path d="M46.608 50.584V54.088H53.136C53.712 54.088 54.176 54.264 54.528 54.616C54.912 54.968 55.104 55.432 55.104 56.008C55.104 56.584 54.912 57.048 54.528 57.4C54.176 57.72 53.712 57.88 53.136 57.88H46.608V62.008C46.608 63 46.32 63.768 45.744 64.312C45.2 64.856 44.496 65.128 43.632 65.128C42.768 65.128 42.048 64.856 41.472 64.312C40.928 63.768 40.656 63 40.656 62.008V57.88H38.016C37.472 57.88 36.992 57.704 36.576 57.352C36.192 57 36 56.552 36 56.008C36 55.432 36.192 54.968 36.576 54.616C36.992 54.264 37.472 54.088 38.016 54.088H40.656V50.584H38.016C37.472 50.584 36.992 50.408 36.576 50.056C36.192 49.672 36 49.208 36 48.664C36 48.088 36.192 47.624 36.576 47.272C36.992 46.92 37.472 46.744 38.016 46.744H40.656V33.928C40.656 33 40.912 32.28 41.424 31.768C41.936 31.256 42.656 31 43.584 31H52.128C55.744 31 58.544 31.896 60.528 33.688C62.544 35.448 63.552 37.768 63.552 40.648C63.552 43.752 62.544 46.184 60.528 47.944C58.544 49.704 55.744 50.584 52.128 50.584H46.608ZM46.56 46.744H50.832C55.504 46.744 57.84 44.952 57.84 41.368C57.84 39.384 57.28 37.928 56.16 37C55.072 36.072 53.392 35.608 51.12 35.608H46.56V46.744Z" fill="white"/>
</svg>
