<svg width="88" height="104" viewBox="0 0 88 104" fill="none" xmlns="http://www.w3.org/2000/svg">
<path d="M83.3516 69.0081C80.5741 76.5358 76.3734 83.0811 70.8649 88.4604C64.5947 94.5832 56.3842 99.4484 46.4614 102.919C46.1358 103.032 45.796 103.126 45.4546 103.194C45.0036 103.283 44.5448 103.331 44.0899 103.338H44.0008C43.5159 103.338 43.0287 103.289 42.5454 103.194C42.204 103.126 41.8689 103.032 41.5449 102.921C31.6102 99.4563 23.3895 94.5934 17.1131 88.4707C11.6021 83.0914 7.40229 76.55 4.62869 69.0223C-0.414729 55.3356 -0.12775 40.2582 0.103252 28.142L0.107194 27.956C0.15371 26.9555 0.183669 25.9045 0.200226 24.744C0.284585 19.0462 4.81475 14.3323 10.5133 14.0146C22.3946 13.3516 31.5858 9.47656 39.4391 1.82195L39.5077 1.75887C40.8117 0.562865 42.4547 -0.0237074 44.0899 0.000733234C45.6667 0.0212318 47.2372 0.607015 48.4947 1.75887L48.5617 1.82195C56.4166 9.47656 65.6078 13.3516 77.489 14.0146C83.1876 14.3323 87.7178 19.0462 87.8021 24.744C87.8187 25.9124 87.8486 26.9618 87.8952 27.956L87.8975 28.0348C88.1277 40.1738 88.4131 55.2812 83.3516 69.0081Z" fill="#2A94FA"/>
<path d="M83.3516 69.0084C80.574 76.5361 76.3734 83.0814 70.8648 88.4607C64.5947 94.5834 56.3842 99.4487 46.4614 102.919C46.1358 103.033 45.7959 103.126 45.4546 103.194C45.0036 103.283 44.5448 103.332 44.0898 103.338V0.000976562C45.6667 0.0214751 47.2372 0.607259 48.4947 1.75912L48.5617 1.82219C56.4165 9.4768 65.6077 13.3518 77.489 14.0149C83.1876 14.3326 87.7177 19.0464 87.8021 24.7442C87.8187 25.9127 87.8486 26.962 87.8951 27.9562L87.8975 28.035C88.1277 40.1741 88.4131 55.2815 83.3516 69.0084Z" fill="#154D83"/>
<path d="M69.7529 51.669C69.7529 65.839 58.2477 77.3734 44.0896 77.4238H43.9989C29.799 77.4238 18.2441 65.8698 18.2441 51.669C18.2441 37.4691 29.799 25.915 43.9989 25.915H44.0896C58.2477 25.9655 69.7529 37.4998 69.7529 51.669Z" fill="white"/>
<path d="M69.7532 51.669C69.7532 65.839 58.248 77.3734 44.0898 77.4238V25.915C58.248 25.9655 69.7532 37.4998 69.7532 51.669Z" fill="#E1EBF0"/>
<path d="M55.6885 47.9602L44.0895 59.5608L41.5832 62.0672C40.9911 62.6593 40.2145 62.9549 39.4387 62.9549C38.6621 62.9549 37.8864 62.6593 37.2935 62.0672L31.9047 56.6761C30.7206 55.4919 30.7206 53.5737 31.9047 52.3887C33.0873 51.2045 35.0079 51.2045 36.1921 52.3887L39.4387 55.6354L51.4012 43.6729C52.5854 42.4879 54.5059 42.4879 55.6885 43.6729C56.8727 44.8571 56.8727 46.7776 55.6885 47.9602Z" fill="#B4D2D7"/>
<path d="M55.6888 47.9602L44.0898 59.5608V50.9838L51.4015 43.6729C52.5857 42.4879 54.5062 42.4879 55.6888 43.6729C56.873 44.8571 56.873 46.7776 55.6888 47.9602Z" fill="#6FA5AA"/>
</svg>
