<svg width="30" height="43" viewBox="0 0 30 43" fill="none" xmlns="http://www.w3.org/2000/svg">
<path d="M15 0C6.72906 0 0 6.7051 0 14.9466C0 25.3053 15.0147 43 15.0147 43C15.0147 43 30 24.7959 30 14.9466C30 6.7051 23.2712 0 15 0ZM19.5258 19.323C18.2779 20.5662 16.6391 21.1879 15 21.1879C13.3612 21.1879 11.7219 20.5662 10.4745 19.323C7.97884 16.8365 7.97884 12.7906 10.4745 10.3038C11.6829 9.09918 13.2903 8.43571 15 8.43571C16.7097 8.43571 18.3169 9.09945 19.5258 10.3038C22.0214 12.7906 22.0214 16.8365 19.5258 19.323Z" fill="#2A94FA"/>
</svg>
