<svg width="200" height="46" viewBox="0 0 200 46" fill="none" xmlns="http://www.w3.org/2000/svg">
<path d="M44.9315 0.847235L32.9053 21.6256C32.9743 21.6429 33.0431 21.6612 33.1115 21.6808C33.6193 21.8266 34.0961 22.0042 34.54 22.2124C35.0767 22.4641 35.5646 22.761 36.0004 23.1004L48.05 2.28079C48.4947 1.51333 48.1566 0.570171 47.295 0.174316C46.4338 -0.221588 45.3756 0.0796694 44.9315 0.847235Z" fill="white"/>
<path d="M5.19888 39.3825C7.11083 40.9191 9.45839 42.258 12.1764 43.3619C16.7663 45.2262 20.8058 45.7768 20.9754 45.7996C20.9802 45.8001 20.9849 45.8006 20.9895 45.8011C21.0431 45.8075 21.0969 45.811 21.1509 45.811C21.164 45.811 21.1769 45.8105 21.19 45.8105C26.0187 45.67 29.7822 44.2367 32.3756 41.551C35.7866 38.0185 37.0194 32.7072 36.7798 28.141C36.711 26.8337 36.1886 25.4992 35.163 24.5472C35.0866 24.4762 35.008 24.4069 34.9261 24.3404C34.5662 24.0486 34.1637 23.8046 33.7354 23.6025C33.3642 23.4273 32.9736 23.2835 32.5738 23.1688C32.4078 23.1212 32.2417 23.0851 32.0757 23.0586C31.8455 23.0218 31.6157 23.0039 31.3872 23.0039C29.6941 23.0039 28.071 23.9522 26.8312 24.9207C25.551 25.9209 24.2515 27.011 22.805 27.8649C21.2198 28.8007 19.4796 29.272 17.6672 29.732C15.3263 30.3261 12.9196 30.7054 10.5026 30.9472C8.35354 31.1621 6.1757 31.287 4.00408 31.287C3.14219 31.287 2.28162 31.2673 1.42378 31.2258C1.37403 31.2234 1.32429 31.2212 1.2746 31.2182C1.24695 31.2164 1.21919 31.2156 1.19171 31.2156C0.822774 31.2156 0.472663 31.3681 0.246252 31.6312C0.00290662 31.9139 -0.0652168 32.2864 0.0648671 32.6233C1.0433 35.1569 2.77064 37.431 5.19888 39.3825ZM3.5285 33.4038C3.52922 33.4038 3.52994 33.4038 3.53066 33.4038C3.65125 33.4045 3.776 33.4049 3.90403 33.4049C5.65942 33.4049 8.10541 33.3357 10.8495 33.0574C16.6554 32.4686 21.3883 31.2095 24.9714 29.3064C25.0732 29.2524 25.1875 29.2253 25.3021 29.2253C25.4102 29.2253 25.5184 29.2494 25.6164 29.2974C27.6991 30.3174 30.9353 31.8288 33.243 32.5626C33.5286 32.6535 33.7053 32.9084 33.6708 33.1769C33.3951 35.3229 32.6134 38.0539 30.5594 40.1752C28.4556 42.3478 25.349 43.5265 21.3227 43.6802C21.3101 43.6808 21.2975 43.6809 21.285 43.6809C21.2327 43.6809 21.1808 43.6768 21.1291 43.6688C20.7234 43.6049 19.7225 43.4329 18.3793 43.1034C18.7621 42.9528 19.1582 42.7721 19.5585 42.5707C19.9169 42.3902 20.2783 42.1936 20.6362 41.9878C21.7431 41.3516 22.815 40.6291 23.649 40.0347C23.8419 39.8973 23.6609 39.6287 23.433 39.7138C21.6099 40.3955 19.2807 40.8513 17.1966 41.151C16.5415 41.2452 15.9111 41.3238 15.3279 41.3893C14.6456 41.466 14.0289 41.5245 13.5141 41.5683C13.38 41.5155 13.2455 41.462 13.1106 41.4068C11.9507 40.9334 10.8686 40.4149 9.86796 39.8558C10.3047 39.8198 10.7636 39.7552 11.229 39.6709C11.6518 39.5942 12.0794 39.5014 12.5004 39.3995C13.7398 39.0995 14.9184 38.7208 15.7246 38.4418C15.878 38.3887 15.8233 38.1847 15.6594 38.1987C14.192 38.3246 12.1567 38.3361 10.4186 38.3134C9.84919 38.306 9.31187 38.2948 8.83678 38.2828C8.21196 38.267 7.69529 38.2497 7.35528 38.2373C7.15585 38.0886 6.96048 37.9381 6.77087 37.7852C6.52559 37.5874 6.28935 37.3856 6.06066 37.1807C6.41349 37.1488 6.77981 37.0987 7.1518 37.0353C7.49963 36.9759 7.85196 36.905 8.20241 36.8261C9.58647 36.5149 10.9369 36.0834 11.8302 35.7743C11.9837 35.7211 11.929 35.5172 11.7651 35.5312C10.3875 35.6494 8.50927 35.6668 6.84644 35.6497C6.43625 35.6454 6.03934 35.6392 5.66613 35.6317C5.25084 35.6234 4.86503 35.6138 4.52364 35.6042C4.04045 35.0319 3.6135 34.4378 3.2449 33.823C3.13108 33.6334 3.28754 33.4038 3.5285 33.4038Z" fill="white"/>
<path d="M42.0228 40.1031C43.5784 40.1031 44.8394 38.69 44.8394 36.947C44.8394 35.204 43.5784 33.791 42.0228 33.791C40.4671 33.791 39.2061 35.204 39.2061 36.947C39.2061 38.69 40.4671 40.1031 42.0228 40.1031Z" fill="white"/>
<path d="M35.9479 45.7766C36.7339 45.7766 37.371 45.2086 37.371 44.5085C37.371 43.808 36.7339 43.2402 35.9479 43.2402C35.162 43.2402 34.5249 43.808 34.5249 44.5085C34.5249 45.2086 35.162 45.7766 35.9479 45.7766Z" fill="white"/>
<path d="M43.6643 45.4857C44.4502 45.4857 45.0875 44.9177 45.0875 44.2173C45.0875 43.517 44.4502 42.9492 43.6643 42.9492C42.8783 42.9492 42.2412 43.517 42.2412 44.2173C42.2412 44.9177 42.8783 45.4857 43.6643 45.4857Z" fill="white"/>
<path d="M68.5704 14.2637C66.4029 14.2637 64.5551 15.0798 63.0272 16.7121C61.4993 18.3246 60.7354 20.8228 60.7354 24.2069C60.7354 27.5909 61.5437 30.2484 63.1605 32.1793C64.0666 33.2344 65.1592 33.7619 66.4384 33.7619C67.0602 33.7619 67.7975 33.6126 68.6503 33.314C69.5742 32.9557 70.7645 32.3485 72.2214 31.4926C72.6655 31.1343 72.8876 30.6864 72.8876 30.1489C72.8876 29.6114 72.6567 29.3427 72.1947 29.3427C71.9993 29.3427 71.5729 29.5119 70.9155 29.8503C69.0501 30.8456 67.7176 31.3433 66.9181 31.3433C66.0831 31.3433 65.3635 30.975 64.7595 30.2385C63.5869 28.845 63.0006 26.8843 63.0006 24.3562C63.0006 21.8679 63.498 19.9768 64.493 18.6829C65.4701 17.4089 66.927 16.7719 68.8635 16.7719C69.663 16.7719 70.5602 16.9112 71.5551 17.1899C71.9638 17.1899 72.3013 17.0705 72.5678 16.8316C72.8343 16.5728 72.9676 16.2742 72.9676 15.9358C72.9676 15.5974 72.8166 15.2988 72.5145 15.04C71.0399 14.5225 69.7252 14.2637 68.5704 14.2637ZM78.4269 33.8216C79.4573 33.8216 80.3457 33.7519 81.0918 33.6126C81.4649 33.513 81.6515 33.1946 81.6515 32.6571C81.6515 31.9803 81.3583 31.6419 80.772 31.6419L76.8279 31.9106C76.7746 30.6764 76.7479 29.6214 76.7479 28.7455C76.7479 27.9492 76.8457 26.5359 77.0411 24.5055C77.2188 22.9329 77.3165 21.7783 77.3342 21.0418C77.3342 20.7233 77.2276 20.4744 77.0144 20.2953C76.8012 20.1161 76.5259 20.0265 76.1883 20.0265C75.5132 20.0265 75.1756 20.2754 75.1756 20.773L74.9891 29.4323C74.9891 31.2039 75.0424 32.5078 75.149 33.3438C75.2023 33.6424 75.451 33.7917 75.8952 33.7917L78.4269 33.8216ZM88.0952 27.1032C88.486 27.1032 88.7792 27.1032 88.9746 27.1032C89.17 27.0833 89.3122 27.0734 89.401 27.0734C89.6142 27.0336 89.8096 26.9042 89.9873 26.6852C90.165 26.4662 90.2538 26.2373 90.2538 25.9984C90.2538 25.5207 89.9784 25.242 89.4276 25.1624C87.1713 25.1624 85.8122 25.1524 85.3502 25.1325C85.3325 24.9932 85.3236 23.9879 85.3236 22.1167C85.9987 22.1764 86.6561 22.2063 87.2957 22.2063C89.0546 22.2063 90.165 22.0669 90.6269 21.7882C90.8401 21.629 90.9467 21.3603 90.9467 20.982C90.9467 20.4844 90.6624 20.1858 90.0939 20.0863H90.0672L85.4035 19.9967H84.6574C83.8579 20.0166 83.4581 20.3948 83.4581 21.1313C83.4581 22.4053 83.4848 23.8187 83.5381 25.3714C83.3426 25.5903 83.2449 25.8292 83.2449 26.088C83.2449 26.3866 83.3604 26.6056 83.5914 26.7449V31.7016C83.5914 32.3386 83.6447 32.8462 83.7513 33.2244C83.8579 33.6026 84.1332 33.7917 84.5774 33.7917L89.8007 33.732C90.4936 33.732 90.8401 33.314 90.8401 32.4779C90.8401 32.04 90.5825 31.7912 90.0672 31.7314L85.4568 31.821C85.4746 31.8011 85.4835 31.5224 85.4835 30.985L85.4302 27.0734L88.0952 27.1032ZM95.2612 32.9855C95.35 32.0698 95.652 30.557 96.1673 28.4469C97.1266 28.7256 98.3792 28.8649 99.9249 28.8649L100.858 32.9557C100.982 33.513 101.337 33.7917 101.924 33.7917C102.155 33.7917 102.35 33.7121 102.51 33.5529C102.67 33.3936 102.75 33.1945 102.75 32.9557C102.27 30.6266 101.861 28.7953 101.524 27.4615C101.169 26.0482 100.698 24.6249 100.111 23.1916C99.5251 21.7783 99.1431 20.9124 98.9655 20.5939C98.7523 20.2157 98.5035 20.0265 98.2193 20.0265C97.6685 20.0265 97.1178 20.574 96.567 21.6688C95.9629 22.8433 95.4477 24.2168 95.0213 25.7894C93.9909 29.3725 93.4756 31.7613 93.4756 32.9557C93.4756 33.4732 93.751 33.732 94.3018 33.732C94.8703 33.732 95.1901 33.4832 95.2612 32.9855ZM98.1393 22.7736C98.6546 23.9879 99.0987 25.3515 99.4718 26.8644C98.4058 26.8644 97.482 26.7449 96.7002 26.506C97.0733 25.1126 97.553 23.8685 98.1393 22.7736ZM107.131 24.4756C108.606 26.3468 110.018 28.7156 111.369 31.5821C111.422 31.6817 111.529 31.9006 111.688 32.239C111.848 32.5775 112.079 32.9557 112.381 33.3737C112.63 33.7121 112.977 33.8813 113.421 33.8813C114.167 33.8813 114.54 33.3638 114.54 32.3286L114.407 21.2209C114.407 20.8825 114.309 20.6038 114.114 20.3849C113.918 20.146 113.705 20.0265 113.474 20.0265C112.888 20.0265 112.524 20.4048 112.381 21.1612V21.4001L112.515 23.8485C112.621 25.6998 112.683 27.8497 112.701 30.2982C111.813 28.208 110.534 26.0084 108.864 23.6993C108.171 22.7039 107.638 22.0172 107.265 21.6389C106.892 21.2408 106.572 21.0418 106.305 21.0418C105.808 21.0418 105.488 21.3105 105.346 21.848C105.257 22.266 105.213 22.8433 105.213 23.5798V24.5652L104.999 32.9258C105.017 33.1846 105.106 33.4036 105.266 33.5827C105.444 33.742 105.639 33.8216 105.852 33.8216C106.403 33.8216 106.714 33.5529 106.785 33.0154C106.803 32.9358 106.812 32.7268 106.812 32.3883L106.838 31.7314L107.131 24.4756ZM124.758 14.2637C122.591 14.2637 120.743 15.0798 119.215 16.7121C117.687 18.3246 116.923 20.8228 116.923 24.2069C116.923 27.5909 117.732 30.2484 119.349 32.1793C120.255 33.2344 121.347 33.7619 122.627 33.7619C123.248 33.7619 123.986 33.6126 124.838 33.314C125.762 32.9557 126.953 32.3485 128.41 31.4926C128.854 31.1343 129.076 30.6864 129.076 30.1489C129.076 29.6114 128.845 29.3427 128.383 29.3427C128.187 29.3427 127.761 29.5119 127.104 29.8503C125.238 30.8456 123.906 31.3433 123.106 31.3433C122.271 31.3433 121.552 30.975 120.948 30.2385C119.775 28.845 119.189 26.8843 119.189 24.3562C119.189 21.8679 119.686 19.9768 120.681 18.6829C121.658 17.4089 123.115 16.7719 125.052 16.7719C125.851 16.7719 126.748 16.9112 127.743 17.1899C128.152 17.1899 128.489 17.0705 128.756 16.8316C129.022 16.5728 129.156 16.2742 129.156 15.9358C129.156 15.5974 129.005 15.2988 128.703 15.04C127.228 14.5225 125.913 14.2637 124.758 14.2637ZM134.615 33.8216C135.645 33.8216 136.534 33.7519 137.28 33.6126C137.653 33.513 137.84 33.1946 137.84 32.6571C137.84 31.9803 137.546 31.6419 136.96 31.6419L133.016 31.9106C132.963 30.6764 132.936 29.6214 132.936 28.7455C132.936 27.9492 133.034 26.5359 133.229 24.5055C133.407 22.9329 133.505 21.7783 133.522 21.0418C133.522 20.7233 133.416 20.4744 133.203 20.2953C132.989 20.1161 132.714 20.0265 132.376 20.0265C131.701 20.0265 131.364 20.2754 131.364 20.773L131.177 29.4323C131.177 31.2039 131.23 32.5078 131.337 33.3438C131.39 33.6424 131.639 33.7917 132.083 33.7917L134.615 33.8216ZM144.283 27.1032C144.674 27.1032 144.967 27.1032 145.163 27.1032C145.358 27.0833 145.5 27.0734 145.589 27.0734C145.802 27.0336 145.998 26.9042 146.175 26.6852C146.353 26.4662 146.442 26.2373 146.442 25.9984C146.442 25.5207 146.167 25.242 145.616 25.1624C143.359 25.1624 142 25.1524 141.538 25.1325C141.521 24.9932 141.512 23.9879 141.512 22.1167C142.187 22.1764 142.844 22.2063 143.484 22.2063C145.243 22.2063 146.353 22.0669 146.815 21.7882C147.028 21.629 147.135 21.3603 147.135 20.982C147.135 20.4844 146.851 20.1858 146.282 20.0863H146.255L141.592 19.9967H140.845C140.046 20.0166 139.646 20.3948 139.646 21.1313C139.646 22.4053 139.673 23.8187 139.726 25.3714C139.531 25.5903 139.433 25.8292 139.433 26.088C139.433 26.3866 139.549 26.6056 139.78 26.7449V31.7016C139.78 32.3386 139.833 32.8462 139.939 33.2244C140.046 33.6026 140.321 33.7917 140.766 33.7917L145.989 33.732C146.682 33.732 147.028 33.314 147.028 32.4779C147.028 32.04 146.771 31.7912 146.255 31.7314L141.645 31.821C141.663 31.8011 141.672 31.5224 141.672 30.985L141.618 27.0734L144.283 27.1032ZM151.449 32.9855C151.538 32.0698 151.84 30.557 152.355 28.4469C153.315 28.7256 154.567 28.8649 156.113 28.8649L157.046 32.9557C157.17 33.513 157.525 33.7917 158.112 33.7917C158.343 33.7917 158.538 33.7121 158.698 33.5529C158.858 33.3936 158.938 33.1945 158.938 32.9557C158.458 30.6266 158.05 28.7953 157.712 27.4615C157.357 26.0482 156.886 24.6249 156.3 23.1916C155.713 21.7783 155.331 20.9124 155.154 20.5939C154.94 20.2157 154.692 20.0265 154.407 20.0265C153.857 20.0265 153.306 20.574 152.755 21.6688C152.151 22.8433 151.636 24.2168 151.209 25.7894C150.179 29.3725 149.664 31.7613 149.664 32.9557C149.664 33.4732 149.939 33.732 150.49 33.732C151.058 33.732 151.378 33.4832 151.449 32.9855ZM154.327 22.7736C154.843 23.9879 155.287 25.3515 155.66 26.8644C154.594 26.8644 153.67 26.7449 152.888 26.506C153.261 25.1126 153.741 23.8685 154.327 22.7736ZM163.32 24.4756C164.794 26.3468 166.207 28.7156 167.557 31.5821C167.61 31.6817 167.717 31.9006 167.877 32.239C168.037 32.5775 168.267 32.9557 168.57 33.3737C168.818 33.7121 169.165 33.8813 169.609 33.8813C170.355 33.8813 170.728 33.3638 170.728 32.3286L170.595 21.2209C170.595 20.8825 170.497 20.6038 170.302 20.3849C170.106 20.146 169.893 20.0265 169.662 20.0265C169.076 20.0265 168.712 20.4048 168.57 21.1612V21.4001L168.703 23.8485C168.809 25.6998 168.872 27.8497 168.889 30.2982C168.001 28.208 166.722 26.0084 165.052 23.6993C164.359 22.7039 163.826 22.0172 163.453 21.6389C163.08 21.2408 162.76 21.0418 162.493 21.0418C161.996 21.0418 161.676 21.3105 161.534 21.848C161.445 22.266 161.401 22.8433 161.401 23.5798V24.5652L161.188 32.9258C161.205 33.1846 161.294 33.4036 161.454 33.5827C161.632 33.742 161.827 33.8216 162.04 33.8216C162.591 33.8216 162.902 33.5529 162.973 33.0154C162.991 32.9358 163 32.7268 163 32.3883L163.026 31.7314L163.32 24.4756ZM176.363 32.0002C176.31 31.4627 176.141 31.0347 175.857 30.7162C175.572 30.3778 175.235 30.2086 174.844 30.2086C174.489 30.2086 174.169 30.4475 173.884 30.9252C173.6 31.3831 173.458 31.8608 173.458 32.3585C173.458 32.8163 173.6 33.1647 173.884 33.4036C174.169 33.6424 174.515 33.7619 174.924 33.7619C175.297 33.7619 175.626 33.5827 175.91 33.2244C176.212 32.8462 176.363 32.4381 176.363 32.0002ZM180.757 32.6571C180.703 30.8655 180.668 29.6811 180.65 29.1038C181.379 29.6612 182.205 30.3878 183.129 31.2835C184.035 32.1793 184.603 32.7964 184.834 33.1348C185.154 33.5728 185.447 33.7917 185.714 33.7917C185.785 33.7917 185.9 33.7619 186.06 33.7022C186.486 33.5429 186.7 33.2443 186.7 32.8064C186.7 32.1893 186.264 31.403 185.394 30.4475C184.488 29.492 183.493 28.6261 182.409 27.8497C182.551 27.8298 182.986 27.5909 183.715 27.1331C184.443 26.6752 184.985 26.307 185.34 26.0283C185.749 25.6899 186.113 25.2519 186.433 24.7145C186.771 24.177 186.939 23.6992 186.939 23.2812C186.939 22.3655 186.504 21.5991 185.634 20.982C184.763 20.345 183.759 20.0265 182.622 20.0265C181.467 20.0265 180.552 20.2057 179.877 20.564C179.202 20.9223 178.865 21.42 178.865 22.057C178.865 28.6659 178.9 32.3784 178.971 33.1945C178.971 33.5927 179.167 33.7917 179.558 33.7917C179.86 33.7917 180.135 33.6823 180.384 33.4633C180.632 33.2443 180.757 32.9855 180.757 32.6869V32.6571ZM180.65 26.4463C180.65 24.3363 180.659 22.9627 180.677 22.3257C181.316 22.1466 181.974 22.057 182.649 22.057C183.288 22.057 183.857 22.2063 184.354 22.5049C184.87 22.7836 185.127 23.1717 185.127 23.6694C185.074 24.2268 184.461 24.8339 183.288 25.4908C182.098 26.1278 181.219 26.4463 180.65 26.4463ZM197.023 21.2209C197.236 22.3556 197.343 24.0277 197.343 26.2373C197.343 29.9399 196.375 31.7912 194.438 31.7912C193.567 31.7912 192.848 31.2338 192.279 30.119C191.729 29.0043 191.4 27.6407 191.293 26.0283C191.258 25.232 191.24 24.5751 191.24 24.0576C191.24 22.9627 191.284 21.9475 191.373 21.0119C191.391 20.7531 191.329 20.5441 191.187 20.3849C191.045 20.2256 190.858 20.146 190.627 20.146C190.396 20.146 190.156 20.2455 189.908 20.4446C189.659 20.6237 189.526 20.8427 189.508 21.1015C189.419 22.1565 189.375 23.1021 189.375 23.9381C189.375 26.088 189.606 28.0587 190.067 29.8503C190.387 31.0646 190.92 32.03 191.666 32.7467C192.43 33.4434 193.354 33.7917 194.438 33.7917C195.966 33.7917 197.094 33.3438 197.823 32.4481C198.569 31.5324 199.004 30.1091 199.128 28.1782C199.182 27.6407 199.208 26.9241 199.208 26.0283C199.208 24.4358 199.12 22.6741 198.942 20.7432C198.924 20.5242 198.826 20.345 198.649 20.2057C198.489 20.0664 198.284 19.9967 198.036 19.9967C197.769 19.9967 197.529 20.0863 197.316 20.2654C197.103 20.4645 196.996 20.6934 196.996 20.9522L197.023 21.2209Z" fill="white"/>
</svg>
