<svg width="123" height="115" viewBox="0 0 123 115" fill="none" xmlns="http://www.w3.org/2000/svg">
<path d="M28.3213 75.0398H15.9492V56.7012C15.9492 55.76 16.7131 54.9961 17.6543 54.9961H26.6162C27.5584 54.9961 28.3213 55.76 28.3213 56.7012V75.0398Z" fill="#FFB509"/>
<path d="M28.3213 56.7031V75.0398H24.0796V56.7031C24.0796 55.7609 23.3157 54.9961 22.3745 54.9961H26.6171C27.5574 54.9961 28.3213 55.7609 28.3213 56.7031Z" fill="#F9A806"/>
<path d="M120.556 61.6474L112.845 63.5008L109.975 49.6281L117.546 47.8067C119.27 47.4069 120.986 48.5077 121.345 50.2437L122.934 57.9275C123.282 59.6091 122.226 61.2608 120.556 61.6474Z" fill="#7C8388"/>
<path d="M120.556 61.6479L119.588 61.8722L116.691 48.0024L117.545 47.8044C119.27 47.4055 120.985 48.5063 121.344 50.2424L122.934 57.929C123.281 59.6097 122.225 61.2604 120.556 61.6479Z" fill="#575F64"/>
<path d="M85.6832 80.7251H63.5093V73.5096C63.5093 72.2596 64.5228 71.2471 65.7718 71.2471H83.4206C84.6697 71.2471 85.6832 72.2596 85.6832 73.5096V80.7251Z" fill="#FFB509"/>
<path d="M85.6832 80.7251H80.4956V71.2471H83.4207C84.6697 71.2471 85.6832 72.2596 85.6832 73.5096V80.7251Z" fill="#F9A806"/>
<path d="M117.849 75.674L111.353 45.1256C110.393 40.6062 106.303 37.6324 101.968 38.2968L89.5812 40.2008C57.7951 45.4925 37.9306 53.7891 25.8213 62.767C17.399 69.0131 11.0459 77.9018 7.6413 88.1718L2.45654 103.811L117.051 103.574C118.171 103.571 119.077 102.611 119.077 101.427V87.3601C119.077 83.4281 118.665 79.5112 117.849 75.674ZM100.661 78.9265H39.9116C37.94 78.9265 37.0344 76.4763 38.5228 75.1813C58.8639 57.4733 88.8577 54.3559 96.6184 53.836C97.6938 53.7638 98.6519 54.5079 98.8499 55.5683L102.751 76.404C102.997 77.7141 101.993 78.9265 100.661 78.9265Z" fill="#2A94FA"/>
<path d="M117.849 75.674L111.354 45.1256C110.394 40.6062 106.303 37.6324 101.969 38.2968L99.0566 38.7444C101.704 39.726 103.811 42.088 104.464 45.1679L110.96 75.7171C111.776 79.5534 112.187 83.4703 112.187 87.4023V101.469C112.187 102.536 111.453 103.418 110.49 103.586L117.051 103.574C118.171 103.571 119.077 102.611 119.077 101.427V87.3601C119.077 83.4281 118.665 79.5112 117.849 75.674Z" fill="#2442EC"/>
<path d="M111.533 114.304H3.07886C0.912051 114.304 -0.575342 111.997 0.214806 109.863L2.45669 103.811H114.609V111.05C114.609 112.848 113.231 114.304 111.533 114.304Z" fill="#D3D3D8"/>
<path d="M114.608 103.812V111.05C114.608 112.848 113.232 114.305 111.533 114.305H105.045C106.745 114.305 108.12 112.848 108.12 111.05V103.812H114.608Z" fill="#BABAC0"/>
<path d="M109.521 91.5203C109.521 88.691 107.231 86.3975 104.407 86.3975C101.583 86.3975 99.293 88.691 99.293 91.5203C99.293 94.3496 101.583 96.6431 104.407 96.6431C107.231 96.6431 109.521 94.3496 109.521 91.5203Z" fill="#FFC540"/>
<path d="M109.522 91.5208C109.522 94.3483 107.231 96.6427 104.407 96.6427C102.418 96.6427 100.693 95.5053 99.8496 93.8434C100.389 94.0386 100.97 94.1428 101.577 94.1428C104.402 94.1428 106.693 91.8511 106.693 89.0218C106.693 88.1866 106.493 87.3965 106.136 86.6992C108.11 87.4068 109.522 89.2986 109.522 91.5208Z" fill="#FFB509"/>
<path d="M21.3187 44.7542C20.2949 44.7542 19.4644 43.9237 19.4644 42.8999V35.9012C19.4644 34.8774 20.2949 34.0469 21.3187 34.0469C22.3425 34.0469 23.173 34.8774 23.173 35.9012V42.8999C23.173 43.9237 22.3425 44.7542 21.3187 44.7542Z" fill="#7C8388"/>
<path d="M32.8333 44.7542C31.8095 44.7542 30.979 43.9237 30.979 42.8999V35.9012C30.979 34.8774 31.8095 34.0469 32.8333 34.0469C33.8571 34.0469 34.6876 34.8774 34.6876 35.9012V42.8999C34.6876 43.9237 33.8571 44.7542 32.8333 44.7542Z" fill="#7C8388"/>
<path d="M44.3475 44.7542C43.3237 44.7542 42.4932 43.9237 42.4932 42.8999V35.9012C42.4932 34.8774 43.3237 34.0469 44.3475 34.0469C45.3713 34.0469 46.2018 34.8774 46.2018 35.9012V42.8999C46.2018 43.9237 45.3713 44.7542 44.3475 44.7542Z" fill="#7C8388"/>
<path d="M45.2223 5.54324C44.1685 5.54511 43.1578 5.745 42.225 6.14664C40.6203 2.50652 36.9642 0 32.8333 0C28.7024 0 25.0463 2.50652 23.4416 6.14664C22.5088 5.745 21.486 5.54418 20.4443 5.54324C16.3369 5.5667 12.9961 8.99756 12.9961 13.1913V14.1166C12.9961 18.1152 15.8611 21.4569 19.6448 22.1898V26.606C19.6448 27.5689 20.3796 28.3609 21.3189 28.451V28.4604H44.3477V28.4547C44.3843 28.4566 44.4209 28.4604 44.4584 28.4604C45.4823 28.4604 46.3128 27.6299 46.3128 26.606V22.1279C49.951 21.2843 52.6705 18.012 52.6705 14.1166V13.1913C52.6705 8.99756 49.3298 5.5667 45.2223 5.54324Z" fill="#7C8388"/>
</svg>
