<svg width="42" height="41" viewBox="0 0 42 41" fill="none" xmlns="http://www.w3.org/2000/svg">
<path d="M37.7111 26.9125C35.2009 26.9125 32.7361 26.5199 30.4004 25.748C29.2559 25.3576 27.849 25.7158 27.1505 26.4332L22.5403 29.9133C17.1938 27.0594 13.9005 23.7671 11.0855 18.4608L14.4633 13.9708C15.3409 13.0944 15.6557 11.8142 15.2785 10.613C14.5034 8.26502 14.1096 5.80143 14.1096 3.29012C14.1097 1.47593 12.6338 0 10.8197 0H3.29001C1.47593 0 0 1.47593 0 3.29001C0 24.0842 16.917 41.001 37.7111 41.001C39.5252 41.001 41.0011 39.5251 41.0011 37.711V30.2024C41.001 28.3884 39.5251 26.9125 37.7111 26.9125Z" fill="#2A94FA"/>
</svg>
