<svg width="49" height="34" viewBox="0 0 49 34" fill="none" xmlns="http://www.w3.org/2000/svg">
<path d="M31.9751 17.6521L48.2369 27.9325V6.9375L31.9751 17.6521Z" fill="#2A94FA"/>
<path d="M0 6.9375V27.9325L16.2618 17.6521L0 6.9375Z" fill="#2A94FA"/>
<path d="M45.2217 0.822266H3.01468C1.5103 0.822266 0.316441 1.94377 0.090332 3.38785L24.1182 19.2185L48.1461 3.38785C47.92 1.94377 46.7261 0.822266 45.2217 0.822266Z" fill="#2A94FA"/>
<path d="M29.2135 19.4718L24.9476 22.2815C24.6943 22.4474 24.4079 22.5288 24.1185 22.5288C23.8291 22.5288 23.5427 22.4474 23.2895 22.2815L19.0235 19.4688L0.0966797 31.4405C0.328818 32.8725 1.51665 33.985 3.015 33.985H45.222C46.7204 33.985 47.9082 32.8725 48.1404 31.4405L29.2135 19.4718Z" fill="#2A94FA"/>
</svg>
