<svg width="252" height="65" viewBox="0 0 252 65" fill="none" xmlns="http://www.w3.org/2000/svg">
<path d="M56.8113 1.20212L41.6055 30.6839C41.6927 30.7084 41.7798 30.7344 41.8662 30.7623C42.5083 30.9691 43.1111 31.2211 43.6724 31.5165C44.351 31.8737 44.9679 32.2949 45.519 32.7765L60.7545 3.23615C61.3168 2.14722 60.8892 0.809 59.7997 0.247333C58.7109 -0.314405 57.3729 0.113041 56.8113 1.20212Z" fill="#2495F7"/>
<path d="M6.57345 55.8788C8.99091 58.059 11.9592 59.9587 15.3958 61.525C21.1993 64.1702 26.3068 64.9515 26.5213 64.9838C26.5273 64.9845 26.5333 64.9852 26.5391 64.9859C26.6069 64.995 26.6749 64.9999 26.7431 64.9999C26.7597 64.9999 26.7761 64.9992 26.7926 64.9992C32.898 64.7999 37.6565 62.7662 40.9357 58.9555C45.2485 53.9435 46.8072 46.4073 46.5043 39.9285C46.4174 38.0736 45.7568 36.1802 44.46 34.8293C44.3634 34.7286 44.2641 34.6304 44.1604 34.5359C43.7054 34.1219 43.1965 33.7758 42.6549 33.4889C42.1856 33.2403 41.6917 33.0364 41.1862 32.8736C40.9763 32.806 40.7663 32.7549 40.5565 32.7173C40.2653 32.665 39.9748 32.6396 39.6858 32.6396C37.5451 32.6396 35.4929 33.9851 33.9253 35.3593C32.3066 36.7785 30.6635 38.3253 28.8346 39.5368C26.8303 40.8646 24.6299 41.5333 22.3383 42.1859C19.3786 43.0288 16.3355 43.5671 13.2794 43.9101C10.5622 44.215 7.80854 44.3923 5.06275 44.3923C3.97297 44.3923 2.88488 44.3643 1.80022 44.3054C1.73732 44.3021 1.67443 44.2989 1.6116 44.2946C1.57664 44.2922 1.54154 44.291 1.50679 44.291C1.04031 44.291 0.597634 44.5073 0.31136 44.8806C0.00367513 45.2818 -0.08246 45.8104 0.0820178 46.2884C1.31915 49.8831 3.5032 53.1098 6.57345 55.8788ZM4.46142 47.3958C4.46234 47.3958 4.46325 47.3958 4.46416 47.3958C4.61663 47.3967 4.77437 47.3974 4.93625 47.3974C7.15575 47.3974 10.2485 47.2992 13.7181 46.9042C21.0591 46.0688 27.0434 44.2823 31.5738 41.5821C31.7025 41.5054 31.8471 41.467 31.9919 41.467C32.1286 41.467 32.2655 41.5012 32.3894 41.5693C35.0226 43.0165 39.1146 45.1611 42.0323 46.2022C42.3934 46.3311 42.6169 46.6929 42.5732 47.0738C42.2248 50.1187 41.2363 53.9936 38.6392 57.0035C35.9792 60.0861 32.0512 61.7586 26.9603 61.9766C26.9445 61.9775 26.9285 61.9777 26.9127 61.9777C26.8466 61.9777 26.7809 61.9719 26.7156 61.9604C26.2026 61.8698 24.937 61.6258 23.2387 61.1583C23.7228 60.9445 24.2236 60.6882 24.7297 60.4023C25.1829 60.1463 25.6399 59.8674 26.0923 59.5754C27.4919 58.6726 28.8472 57.6476 29.9017 56.8042C30.1456 56.6092 29.9168 56.2281 29.6287 56.3489C27.3235 57.316 24.3785 57.9628 21.7434 58.388C20.9151 58.5216 20.118 58.6332 19.3805 58.7262C18.5179 58.835 17.7381 58.918 17.0872 58.9801C16.9176 58.9053 16.7476 58.8293 16.577 58.751C15.1105 58.0792 13.7422 57.3435 12.477 56.5503C13.0292 56.4992 13.6094 56.4076 14.1979 56.2879C14.7325 56.1791 15.2732 56.0474 15.8055 55.9029C17.3726 55.4773 18.8628 54.9398 19.8821 54.544C20.0761 54.4686 20.007 54.1793 19.7998 54.1992C17.9444 54.3777 15.3709 54.3941 13.1732 54.3618C12.4533 54.3513 11.7739 54.3355 11.1732 54.3184C10.3832 54.296 9.7299 54.2715 9.3 54.2538C9.04784 54.0429 8.80081 53.8294 8.56108 53.6124C8.25094 53.3318 7.95224 53.0454 7.66309 52.7547C8.1092 52.7094 8.57238 52.6384 9.04272 52.5484C9.48252 52.4642 9.92801 52.3636 10.3711 52.2516C12.1211 51.81 13.8286 51.1977 14.9581 50.7592C15.1521 50.6838 15.083 50.3944 14.8757 50.4143C13.1339 50.582 10.7591 50.6067 8.65662 50.5823C8.13799 50.5763 7.63613 50.5674 7.16425 50.5568C6.63915 50.5451 6.15134 50.5315 5.71968 50.5178C5.10873 49.7058 4.5689 48.8629 4.10284 47.9906C3.95893 47.7215 4.15676 47.3958 4.46142 47.3958Z" fill="#2495F7"/>
<path d="M53.1333 58.5595C55.1002 58.5595 56.6946 56.965 56.6946 54.998C56.6946 53.031 55.1002 51.4365 53.1333 51.4365C51.1663 51.4365 49.5718 53.031 49.5718 54.998C49.5718 56.965 51.1663 58.5595 53.1333 58.5595Z" fill="#2495F7"/>
<path d="M45.4526 64.9533C46.4464 64.9533 47.2519 64.1474 47.2519 63.1541C47.2519 62.1601 46.4464 61.3545 45.4526 61.3545C44.4589 61.3545 43.6533 62.1601 43.6533 63.1541C43.6533 64.1474 44.4589 64.9533 45.4526 64.9533Z" fill="#2495F7"/>
<path d="M55.2099 64.5374C56.2037 64.5374 57.0094 63.7315 57.0094 62.7378C57.0094 61.744 56.2037 60.9385 55.2099 60.9385C54.2162 60.9385 53.4106 61.744 53.4106 62.7378C53.4106 63.7315 54.2162 64.5374 55.2099 64.5374Z" fill="#2495F7"/>
<path d="M86.7005 29.3984C83.9599 29.3984 81.6237 30.3195 79.6918 32.1615C77.7599 33.9811 76.7939 36.8003 76.7939 40.6192C76.7939 44.438 77.816 47.4369 79.8603 49.6159C81.0059 50.8065 82.3875 51.4018 84.0049 51.4018C84.7911 51.4018 85.7233 51.2333 86.8016 50.8964C87.9697 50.492 89.4748 49.8069 91.3168 48.8409C91.8784 48.4366 92.1592 47.9311 92.1592 47.3246C92.1592 46.7181 91.8672 46.4148 91.2831 46.4148C91.036 46.4148 90.4969 46.6058 89.6657 46.9877C87.307 48.1109 85.6223 48.6725 84.6114 48.6725C83.5556 48.6725 82.6458 48.2569 81.882 47.4257C80.3994 45.8532 79.6581 43.6405 79.6581 40.7876C79.6581 37.9796 80.2871 35.8456 81.5451 34.3854C82.7806 32.9477 84.6226 32.2289 87.0712 32.2289C88.082 32.2289 89.2165 32.3861 90.4745 32.7006C90.9911 32.7006 91.4179 32.5658 91.7549 32.2963C92.0918 32.0042 92.2603 31.6673 92.2603 31.2854C92.2603 30.9035 92.0694 30.5666 91.6875 30.2745C89.823 29.6905 88.1607 29.3984 86.7005 29.3984ZM99.1631 51.4692C100.466 51.4692 101.589 51.3906 102.533 51.2333C103.004 51.121 103.24 50.7616 103.24 50.1551C103.24 49.3913 102.87 49.0094 102.128 49.0094L97.1413 49.3127C97.0739 47.9199 97.0402 46.7293 97.0402 45.7409C97.0402 44.8424 97.1638 43.2474 97.4109 40.9561C97.6355 39.1815 97.7591 37.8786 97.7815 37.0474C97.7815 36.688 97.6467 36.4072 97.3772 36.205C97.1076 36.0028 96.7594 35.9017 96.3326 35.9017C95.479 35.9017 95.0522 36.1825 95.0522 36.7441L94.8163 46.5159C94.8163 48.5152 94.8837 49.9866 95.0185 50.9301C95.0859 51.267 95.4004 51.4355 95.962 51.4355L99.1631 51.4692ZM111.388 43.8876C111.882 43.8876 112.252 43.8876 112.5 43.8876C112.747 43.8652 112.926 43.8539 113.039 43.8539C113.308 43.809 113.555 43.663 113.78 43.4159C114.005 43.1688 114.117 42.9105 114.117 42.6409C114.117 42.1018 113.769 41.7873 113.072 41.6974C110.22 41.6974 108.501 41.6862 107.917 41.6637C107.894 41.5065 107.883 40.372 107.883 38.2604C108.737 38.3278 109.568 38.3615 110.377 38.3615C112.601 38.3615 114.005 38.2043 114.589 37.8898C114.858 37.7101 114.993 37.4068 114.993 36.98C114.993 36.4184 114.634 36.0814 113.915 35.9691H113.881L107.984 35.868H107.041C106.03 35.8905 105.525 36.3173 105.525 37.1485C105.525 38.5862 105.558 40.1811 105.626 41.9333C105.379 42.1804 105.255 42.45 105.255 42.742C105.255 43.0789 105.401 43.326 105.693 43.4833V49.0768C105.693 49.7956 105.76 50.3685 105.895 50.7953C106.03 51.2221 106.378 51.4355 106.94 51.4355L113.544 51.3681C114.42 51.3681 114.858 50.8964 114.858 49.9529C114.858 49.4587 114.533 49.1779 113.881 49.1105L108.052 49.2116C108.074 49.1891 108.085 48.8746 108.085 48.2681L108.018 43.8539L111.388 43.8876ZM120.448 50.5257C120.561 49.4924 120.943 47.7851 121.594 45.404C122.807 45.7184 124.391 45.8757 126.345 45.8757L127.524 50.492C127.682 51.121 128.131 51.4355 128.872 51.4355C129.164 51.4355 129.411 51.3456 129.614 51.1659C129.816 50.9862 129.917 50.7616 129.917 50.492C129.31 47.8637 128.794 45.7971 128.367 44.292C127.918 42.6971 127.322 41.0909 126.581 39.4735C125.84 37.8786 125.357 36.9014 125.132 36.542C124.862 36.1151 124.548 35.9017 124.189 35.9017C123.492 35.9017 122.796 36.5195 122.099 37.755C121.336 39.0804 120.684 40.6304 120.145 42.405C118.842 46.4485 118.191 49.1442 118.191 50.492C118.191 51.0761 118.539 51.3681 119.235 51.3681C119.954 51.3681 120.358 51.0873 120.448 50.5257ZM124.087 39.0017C124.739 40.372 125.3 41.9108 125.772 43.6181C124.424 43.6181 123.256 43.4833 122.268 43.2137C122.74 41.6413 123.346 40.2373 124.087 39.0017ZM135.457 40.9224C137.321 43.034 139.107 45.7072 140.815 48.942C140.882 49.0543 141.017 49.3014 141.219 49.6833C141.421 50.0652 141.713 50.492 142.095 50.9638C142.41 51.3457 142.848 51.5366 143.409 51.5366C144.353 51.5366 144.824 50.9525 144.824 49.7844L144.656 37.2496C144.656 36.8677 144.532 36.5532 144.285 36.3061C144.038 36.0365 143.769 35.9017 143.477 35.9017C142.735 35.9017 142.275 36.3285 142.095 37.1822V37.4517L142.264 40.2148C142.398 42.3039 142.477 44.73 142.499 47.4931C141.376 45.1344 139.759 42.6521 137.647 40.0463C136.771 38.9231 136.097 38.1481 135.625 37.7213C135.154 37.272 134.749 37.0474 134.412 37.0474C133.783 37.0474 133.379 37.3507 133.199 37.9572C133.087 38.4289 133.031 39.0804 133.031 39.9115V41.0235L132.761 50.4583C132.784 50.7504 132.896 50.9975 133.098 51.1996C133.323 51.3793 133.57 51.4692 133.84 51.4692C134.536 51.4692 134.929 51.1659 135.019 50.5594C135.041 50.4696 135.053 50.2337 135.053 49.8518L135.086 49.1105L135.457 40.9224ZM157.745 29.3984C155.004 29.3984 152.668 30.3195 150.736 32.1615C148.804 33.9811 147.838 36.8003 147.838 40.6192C147.838 44.438 148.86 47.4369 150.904 49.6159C152.05 50.8065 153.432 51.4018 155.049 51.4018C155.835 51.4018 156.767 51.2333 157.846 50.8964C159.014 50.492 160.519 49.8069 162.361 48.8409C162.923 48.4366 163.203 47.9311 163.203 47.3246C163.203 46.7181 162.911 46.4148 162.327 46.4148C162.08 46.4148 161.541 46.6058 160.71 46.9877C158.351 48.1109 156.666 48.6725 155.656 48.6725C154.6 48.6725 153.69 48.2569 152.926 47.4257C151.444 45.8532 150.702 43.6405 150.702 40.7876C150.702 37.9796 151.331 35.8456 152.589 34.3854C153.825 32.9477 155.667 32.2289 158.115 32.2289C159.126 32.2289 160.261 32.3861 161.519 32.7006C162.035 32.7006 162.462 32.5658 162.799 32.2963C163.136 32.0042 163.304 31.6673 163.304 31.2854C163.304 30.9035 163.114 30.5666 162.732 30.2745C160.867 29.6905 159.205 29.3984 157.745 29.3984ZM170.207 51.4692C171.51 51.4692 172.633 51.3906 173.577 51.2333C174.049 51.121 174.284 50.7616 174.284 50.1551C174.284 49.3913 173.914 49.0094 173.172 49.0094L168.185 49.3127C168.118 47.9199 168.084 46.7293 168.084 45.7409C168.084 44.8424 168.208 43.2474 168.455 40.9561C168.68 39.1815 168.803 37.8786 168.826 37.0474C168.826 36.688 168.691 36.4072 168.421 36.205C168.152 36.0028 167.804 35.9017 167.377 35.9017C166.523 35.9017 166.096 36.1825 166.096 36.7441L165.86 46.5159C165.86 48.5152 165.928 49.9866 166.063 50.9301C166.13 51.267 166.444 51.4355 167.006 51.4355L170.207 51.4692ZM182.432 43.8876C182.926 43.8876 183.297 43.8876 183.544 43.8876C183.791 43.8652 183.971 43.8539 184.083 43.8539C184.352 43.809 184.6 43.663 184.824 43.4159C185.049 43.1688 185.161 42.9105 185.161 42.6409C185.161 42.1018 184.813 41.7873 184.117 41.6974C181.264 41.6974 179.545 41.6862 178.961 41.6637C178.939 41.5065 178.927 40.372 178.927 38.2604C179.781 38.3278 180.612 38.3615 181.421 38.3615C183.645 38.3615 185.049 38.2043 185.633 37.8898C185.902 37.7101 186.037 37.4068 186.037 36.98C186.037 36.4184 185.678 36.0814 184.959 35.9691H184.925L179.028 35.868H178.085C177.074 35.8905 176.569 36.3173 176.569 37.1485C176.569 38.5862 176.602 40.1811 176.67 41.9333C176.423 42.1804 176.299 42.45 176.299 42.742C176.299 43.0789 176.445 43.326 176.737 43.4833V49.0768C176.737 49.7956 176.805 50.3685 176.939 50.7953C177.074 51.2221 177.422 51.4355 177.984 51.4355L184.588 51.3681C185.464 51.3681 185.902 50.8964 185.902 49.9529C185.902 49.4587 185.577 49.1779 184.925 49.1105L179.096 49.2116C179.118 49.1891 179.13 48.8746 179.13 48.2681L179.062 43.8539L182.432 43.8876ZM191.492 50.5257C191.605 49.4924 191.987 47.7851 192.638 45.404C193.851 45.7184 195.435 45.8757 197.389 45.8757L198.569 50.492C198.726 51.121 199.175 51.4355 199.916 51.4355C200.208 51.4355 200.456 51.3456 200.658 51.1659C200.86 50.9862 200.961 50.7616 200.961 50.492C200.354 47.8637 199.838 45.7971 199.411 44.292C198.962 42.6971 198.366 41.0909 197.625 39.4735C196.884 37.8786 196.401 36.9014 196.176 36.542C195.907 36.1151 195.592 35.9017 195.233 35.9017C194.536 35.9017 193.84 36.5195 193.144 37.755C192.38 39.0804 191.728 40.6304 191.189 42.405C189.886 46.4485 189.235 49.1442 189.235 50.492C189.235 51.0761 189.583 51.3681 190.279 51.3681C190.998 51.3681 191.403 51.0873 191.492 50.5257ZM195.132 39.0017C195.783 40.372 196.345 41.9108 196.816 43.6181C195.469 43.6181 194.3 43.4833 193.312 43.2137C193.784 41.6413 194.39 40.2373 195.132 39.0017ZM206.501 40.9224C208.366 43.034 210.152 45.7072 211.859 48.942C211.926 49.0543 212.061 49.3014 212.263 49.6833C212.465 50.0652 212.757 50.492 213.139 50.9638C213.454 51.3457 213.892 51.5366 214.453 51.5366C215.397 51.5366 215.869 50.9525 215.869 49.7844L215.7 37.2496C215.7 36.8677 215.577 36.5532 215.329 36.3061C215.082 36.0365 214.813 35.9017 214.521 35.9017C213.779 35.9017 213.319 36.3285 213.139 37.1822V37.4517L213.308 40.2148C213.442 42.3039 213.521 44.73 213.544 47.4931C212.42 45.1344 210.803 42.6521 208.691 40.0463C207.815 38.9231 207.141 38.1481 206.67 37.7213C206.198 37.272 205.793 37.0474 205.457 37.0474C204.828 37.0474 204.423 37.3507 204.243 37.9572C204.131 38.4289 204.075 39.0804 204.075 39.9115V41.0235L203.805 50.4583C203.828 50.7504 203.94 50.9975 204.142 51.1996C204.367 51.3793 204.614 51.4692 204.884 51.4692C205.58 51.4692 205.973 51.1659 206.063 50.5594C206.086 50.4696 206.097 50.2337 206.097 49.8518L206.13 49.1105L206.501 40.9224ZM222.993 49.4138C222.926 48.8072 222.712 48.3243 222.353 47.9648C221.993 47.583 221.567 47.392 221.072 47.392C220.623 47.392 220.219 47.6616 219.859 48.2007C219.5 48.7174 219.32 49.2565 219.32 49.8181C219.32 50.3348 219.5 50.7279 219.859 50.9975C220.219 51.267 220.657 51.4018 221.174 51.4018C221.645 51.4018 222.061 51.1996 222.42 50.7953C222.802 50.3685 222.993 49.908 222.993 49.4138ZM228.549 50.1551C228.481 48.1333 228.436 46.7967 228.414 46.1453C229.335 46.7743 230.38 47.5942 231.548 48.6051C232.693 49.6159 233.412 50.3123 233.704 50.6942C234.109 51.1884 234.479 51.4355 234.816 51.4355C234.906 51.4355 235.052 51.4018 235.254 51.3344C235.793 51.1547 236.063 50.8178 236.063 50.3235C236.063 49.6272 235.513 48.7398 234.412 47.6616C233.266 46.5833 232.008 45.6061 230.638 44.73C230.818 44.7076 231.368 44.438 232.289 43.9213C233.21 43.4047 233.895 42.9891 234.344 42.6746C234.861 42.2927 235.322 41.7985 235.726 41.192C236.153 40.5855 236.366 40.0463 236.366 39.5746C236.366 38.5412 235.816 37.6764 234.715 36.98C233.614 36.2612 232.345 35.9017 230.907 35.9017C229.447 35.9017 228.29 36.1039 227.437 36.5083C226.583 36.9126 226.156 37.4742 226.156 38.1931C226.156 45.6511 226.201 49.8406 226.291 50.7616C226.291 51.2109 226.538 51.4355 227.032 51.4355C227.414 51.4355 227.762 51.312 228.077 51.0649C228.391 50.8178 228.549 50.5257 228.549 50.1888V50.1551ZM228.414 43.1463C228.414 40.7652 228.425 39.2152 228.448 38.4963C229.256 38.2941 230.087 38.1931 230.941 38.1931C231.75 38.1931 232.469 38.3615 233.098 38.6985C233.749 39.013 234.075 39.451 234.075 40.0126C234.007 40.6416 233.232 41.3268 231.75 42.0681C230.245 42.7869 229.133 43.1463 228.414 43.1463ZM249.116 37.2496C249.385 38.53 249.52 40.417 249.52 42.9105C249.52 47.0887 248.296 49.1779 245.847 49.1779C244.747 49.1779 243.837 48.5489 243.118 47.2909C242.422 46.0329 242.006 44.4942 241.871 42.6746C241.826 41.776 241.804 41.0347 241.804 40.4507C241.804 39.2152 241.86 38.0695 241.972 37.0137C241.995 36.7217 241.916 36.4858 241.736 36.3061C241.557 36.1264 241.321 36.0365 241.029 36.0365C240.737 36.0365 240.434 36.1488 240.119 36.3735C239.805 36.5756 239.636 36.8228 239.614 37.1148C239.501 38.3054 239.445 39.3724 239.445 40.3159C239.445 42.742 239.737 44.9659 240.321 46.9877C240.726 48.358 241.399 49.4475 242.343 50.2562C243.309 51.0424 244.477 51.4355 245.847 51.4355C247.779 51.4355 249.206 50.9301 250.127 49.9192C251.07 48.8859 251.621 47.2797 251.778 45.1007C251.845 44.4942 251.879 43.6855 251.879 42.6746C251.879 40.8775 251.767 38.8894 251.542 36.7104C251.519 36.4633 251.396 36.2612 251.171 36.1039C250.969 35.9467 250.711 35.868 250.396 35.868C250.059 35.868 249.756 35.9691 249.486 36.1713C249.217 36.3959 249.082 36.6543 249.082 36.9463L249.116 37.2496Z" fill="#262626"/>
</svg>
