<svg width="20" height="19" viewBox="0 0 20 19" fill="none" xmlns="http://www.w3.org/2000/svg">
<path d="M8.10423 1.49264C8.71498 -0.324406 11.285 -0.324404 11.8958 1.49264L12.9096 4.50901C13.1833 5.32325 13.9464 5.87179 14.8054 5.87179H17.9383C19.8921 5.87179 20.6867 8.38553 19.0878 9.50847L16.6712 11.2057C15.9463 11.7148 15.6427 12.64 15.9249 13.4796L16.8753 16.3071C17.4906 18.1378 15.4105 19.691 13.83 18.581L11.1495 16.6984C10.4597 16.2139 9.54028 16.2139 8.85052 16.6984L6.17 18.581C4.58945 19.691 2.50939 18.1378 3.12475 16.3071L4.07512 13.4796C4.35733 12.64 4.05367 11.7148 3.32883 11.2057L0.912207 9.50847C-0.686683 8.38553 0.107857 5.87179 2.06168 5.87179H5.19458C6.05359 5.87179 6.81667 5.32325 7.09035 4.50901L8.10423 1.49264Z" fill="#2A94FA"/>
</svg>
