<svg id="Calque_1" data-name="Calque 1" xmlns="http://www.w3.org/2000/svg" viewBox="0 0 503.9 200"><defs><style>.cls-1{fill:#fff;}</style></defs><title>Swift_white</title><g id="line1"><path class="cls-1" d="M245.4,139.9q6.8,6.1,18.9,6.1,26.4,0,26.4-22.9,0-7.7-3.2-12a18.8,18.8,0,0,0-7.5-6.3,69,69,0,0,0-11.2-3.7,46.7,46.7,0,0,1-9.7-3.4,5.7,5.7,0,0,1-3.1-5.5,6.3,6.3,0,0,1,2.3-5.1,9.2,9.2,0,0,1,6.1-1.9q7.8,0,7.9,8.9v0.3h16.4V91.2a16.7,16.7,0,0,0-6.8-14.1Q275.3,72,264.9,72t-18.2,5.6q-7.1,5.6-7.1,15.9,0,7.3,3,11.6a17.8,17.8,0,0,0,7.2,6.2,78.9,78.9,0,0,0,10.9,3.8,42.1,42.1,0,0,1,10.2,3.8,6.8,6.8,0,0,1,3.2,6.3q0,4-2.8,5.9a11.9,11.9,0,0,1-6.6,1.8,10.2,10.2,0,0,1-6.7-2.4q-2.8-2.4-3-7.6v-0.9H238.7v1.6Q238.6,133.8,245.4,139.9Z" transform="translate(0 0)"/><path class="cls-1" d="M300.7,73.6l17.2,70.8h16.3l6.9-33.9a86.9,86.9,0,0,0,1.4-10.1l0.6-7.3h0.8l0.6,7.4a81.7,81.7,0,0,0,1.4,10.1l7,33.8h16.3l17.1-70.8H371.4l-6.2,29.3q-0.9,5-2.1,12.3t-1.4,9.6h-0.5l-1.1-10q-0.9-7.6-1.8-11.9l-6.1-29.3H336l-6.1,29.2q-1.2,6.3-2,13.2t-0.9,8.9h-0.5q0-1.5-.7-8.9a109.7,109.7,0,0,0-2.1-13.3l-6.7-29.1H300.7Z" transform="translate(0 0)"/><path class="cls-1" d="M398.8,47.1V61.7H415V47.1H398.8Zm0,26.5v70.8H415V73.6H398.8Z" transform="translate(0 0)"/><path class="cls-1" d="M435.7,87.2v57.2h16.2V87.2h12.2V73.6H451.8V65.4a5.8,5.8,0,0,1,1.5-4.3,5.6,5.6,0,0,1,4.2-1.5h6.6v-12a35.4,35.4,0,0,0-5.6-1.1,45.6,45.6,0,0,0-6.1-.5q-8.9,0-12.8,5.5T435.7,65v8.6h-7.1V87.2h7.1Z" transform="translate(0 0)"/><path class="cls-1" d="M481.4,140.5q3.9,5.5,12.8,5.5a31.4,31.4,0,0,0,5.1-.5,24.1,24.1,0,0,0,4.6-1.1v-12h-4.6a5.6,5.6,0,0,1-4.2-1.5,5.8,5.8,0,0,1-1.5-4.3V87.2h10.2V73.6H493.6V53.7H479.9l-2.4,19.9h-7.1V87.2h7.1V127Q477.5,135.1,481.4,140.5Z" transform="translate(0 0)"/></g><g id="logomark"><path class="cls-1" d="M100,0A100,100,0,1,0,200,100,100.1,100.1,0,0,0,100,0Zm0,191.7A91.7,91.7,0,1,1,191.7,100,91.8,91.8,0,0,1,100,191.7Z" transform="translate(0 0)"/></g></svg>